<svg width="24" height="24" viewBox="0 0 24 24" fill="none" xmlns="http://www.w3.org/2000/svg">
<circle cx="12" cy="12" r="12" fill="#F5F5FC"/>
<g clip-path="url(#clip0_315_474094)">
<path d="M10.9771 12.5373H6.71152C6.26621 12.5373 6.04277 13.0748 6.35684 13.3904L8.08027 15.1186L5.91777 17.2748C5.69434 17.4967 5.69434 17.8576 5.91621 18.0811C6.13809 18.3045 6.49902 18.3045 6.72246 18.0826L8.88496 15.9264L10.6084 17.6545C10.9225 17.9701 11.4615 17.7482 11.4631 17.3029L11.4756 13.0373C11.4771 12.7623 11.2537 12.5373 10.9771 12.5373ZM17.2771 5.91543L15.1146 8.07168L13.3912 6.34356C13.0771 6.02793 12.5381 6.24981 12.5365 6.69512L12.524 10.9607C12.5225 11.2373 12.7475 11.4623 13.024 11.4623H17.2896C17.735 11.4623 17.9584 10.9248 17.6443 10.6092L15.9193 8.88106L18.0818 6.72481C18.3053 6.50293 18.3053 6.142 18.0834 5.91856C17.8615 5.69512 17.5006 5.69356 17.2771 5.91543Z" fill="#8D8FA6"/>
</g>
<defs>
<clipPath id="clip0_315_474094">
<rect width="14" height="14" fill="white" transform="translate(5 5)"/>
</clipPath>
</defs>
</svg>
