<svg width="24" height="24" viewBox="0 0 24 24" fill="none" xmlns="http://www.w3.org/2000/svg">
<circle cx="12" cy="12" r="12" fill="#F5F5FC"/>
<g clip-path="url(#clip0_11533_282883)">
<path d="M17.75 5.75H13.4844C13.0391 5.75 12.8156 6.2875 13.1297 6.60312L14.8531 8.33125L12.6906 10.4875C12.4672 10.7094 12.4672 11.0703 12.6891 11.2938C12.9109 11.5172 13.2719 11.5172 13.4953 11.2953L15.6578 9.13906L17.3813 10.8672C17.6953 11.1828 18.2344 10.9609 18.2359 10.5156L18.2484 6.25C18.2516 5.975 18.0266 5.75 17.75 5.75ZM10.5031 12.7031L8.34063 14.8594L6.6172 13.1312C6.30313 12.8156 5.76407 13.0375 5.76251 13.4828L5.75001 17.7484C5.74845 18.025 5.97345 18.25 6.25001 18.25H10.5156C10.9609 18.25 11.1844 17.7125 10.8703 17.3969L9.14532 15.6672L11.3078 13.5109C11.5313 13.2891 11.5313 12.9281 11.3094 12.7047C11.0875 12.4813 10.7266 12.4813 10.5031 12.7031Z" fill="#8D8FA6"/>
</g>
<defs>
<clipPath id="clip0_11533_282883">
<rect width="14" height="14" fill="white" transform="translate(5 5)"/>
</clipPath>
</defs>
</svg>
