<svg width="28" height="28" viewBox="0 0 28 28" fill="none" xmlns="http://www.w3.org/2000/svg">
<g clip-path="url(#clip0_1_44244)">
<g filter="url(#filter0_d_1_44244)">
<path d="M14.0002 16.1953C13.8247 16.1953 13.6522 16.1491 13.5002 16.0615L4.50017 10.8643C4.02178 10.5879 3.85796 9.97612 4.13428 9.49773C4.22204 9.34579 4.34823 9.2196 4.50017 9.13184L13.5002 3.93848C13.8098 3.76074 14.1905 3.76074 14.5002 3.93848L23.5002 9.13184C23.9786 9.40816 24.1424 10.02 23.8661 10.4984C23.7783 10.6503 23.6521 10.7765 23.5002 10.8643L14.5002 16.0615C14.3481 16.1491 14.1757 16.1953 14.0002 16.1953Z" fill="white"/>
</g>
<g filter="url(#filter1_d_1_44244)">
<path d="M23.5002 13.1319L21.5361 11.9985L14.5002 16.0616C14.1907 16.24 13.8096 16.24 13.5002 16.0616L6.46428 11.9985L4.50017 13.1319C4.02178 13.4082 3.85796 14.02 4.13428 14.4984C4.22204 14.6504 4.34823 14.7766 4.50017 14.8643L13.5002 20.0616C13.8096 20.24 14.1907 20.24 14.5002 20.0616L23.5002 14.8643C23.9786 14.588 24.1424 13.9762 23.8661 13.4978C23.7783 13.3459 23.6521 13.2197 23.5002 13.1319Z" fill="white" fill-opacity="0.8" shape-rendering="crispEdges"/>
</g>
<g filter="url(#filter2_d_1_44244)">
<path d="M23.5002 17.1319L21.5361 15.9985L14.5002 20.0616C14.1907 20.24 13.8096 20.24 13.5002 20.0616L6.46428 15.9985L4.50017 17.1319C4.02178 17.4082 3.85796 18.02 4.13428 18.4984C4.22204 18.6504 4.34823 18.7766 4.50017 18.8643L13.5002 24.0616C13.8096 24.24 14.1907 24.24 14.5002 24.0616L23.5002 18.8643C23.9786 18.588 24.1424 17.9762 23.8661 17.4978C23.7783 17.3459 23.6521 17.2197 23.5002 17.1319Z" fill="white" fill-opacity="0.6" shape-rendering="crispEdges"/>
</g>
</g>
<defs>
<filter id="filter0_d_1_44244" x="3" y="3.80518" width="22" height="14.3901" filterUnits="userSpaceOnUse" color-interpolation-filters="sRGB">
<feFlood flood-opacity="0" result="BackgroundImageFix"/>
<feColorMatrix in="SourceAlpha" type="matrix" values="0 0 0 0 0 0 0 0 0 0 0 0 0 0 0 0 0 0 127 0" result="hardAlpha"/>
<feOffset dy="1"/>
<feGaussianBlur stdDeviation="0.5"/>
<feComposite in2="hardAlpha" operator="out"/>
<feColorMatrix type="matrix" values="0 0 0 0 0.552941 0 0 0 0 0.560784 0 0 0 0 0.65098 0 0 0 0.15 0"/>
<feBlend mode="normal" in2="BackgroundImageFix" result="effect1_dropShadow_1_44244"/>
<feBlend mode="normal" in="SourceGraphic" in2="effect1_dropShadow_1_44244" result="shape"/>
</filter>
<filter id="filter1_d_1_44244" x="3" y="11.9985" width="22" height="10.1968" filterUnits="userSpaceOnUse" color-interpolation-filters="sRGB">
<feFlood flood-opacity="0" result="BackgroundImageFix"/>
<feColorMatrix in="SourceAlpha" type="matrix" values="0 0 0 0 0 0 0 0 0 0 0 0 0 0 0 0 0 0 127 0" result="hardAlpha"/>
<feOffset dy="1"/>
<feGaussianBlur stdDeviation="0.5"/>
<feComposite in2="hardAlpha" operator="out"/>
<feColorMatrix type="matrix" values="0 0 0 0 0.552941 0 0 0 0 0.560784 0 0 0 0 0.65098 0 0 0 0.15 0"/>
<feBlend mode="normal" in2="BackgroundImageFix" result="effect1_dropShadow_1_44244"/>
<feBlend mode="normal" in="SourceGraphic" in2="effect1_dropShadow_1_44244" result="shape"/>
</filter>
<filter id="filter2_d_1_44244" x="3" y="15.9985" width="22" height="10.1968" filterUnits="userSpaceOnUse" color-interpolation-filters="sRGB">
<feFlood flood-opacity="0" result="BackgroundImageFix"/>
<feColorMatrix in="SourceAlpha" type="matrix" values="0 0 0 0 0 0 0 0 0 0 0 0 0 0 0 0 0 0 127 0" result="hardAlpha"/>
<feOffset dy="1"/>
<feGaussianBlur stdDeviation="0.5"/>
<feComposite in2="hardAlpha" operator="out"/>
<feColorMatrix type="matrix" values="0 0 0 0 0.552941 0 0 0 0 0.560784 0 0 0 0 0.65098 0 0 0 0.15 0"/>
<feBlend mode="normal" in2="BackgroundImageFix" result="effect1_dropShadow_1_44244"/>
<feBlend mode="normal" in="SourceGraphic" in2="effect1_dropShadow_1_44244" result="shape"/>
</filter>
<clipPath id="clip0_1_44244">
<rect width="28" height="28" fill="white"/>
</clipPath>
</defs>
</svg>
